# xmcd
# Track frame offsets:
# 150
# 11455
# 24272
# 36476
# 51026
# 64879
# 79091
# 91888
# 101355
# 111123
# 123245
# 139571
# 151719
# 163894
# 176741
# 187274
# 203872
# 215525
# 231500
# 244137
#
# Disc length: 3415 seconds
# Revision: 0
# Processed by: cddbd v1.4PL0 Copyright (c) Steve Scherf et al.
# Submitted via: VisiTrax 2.9.7.197 - For more info visit www.synapsa.com
#
DISCID=100d5514
DTITLE=Merle Haggard - 20 Hits - Poet Of The Common Man
DYEAR=1997
DGENRE=
TTITLE0=(My Friends Are Gonna Be) Strangers
TTITLE1=Swingin' Doors
TTITLE2=The Bottle Let Me Down
TTITLE3=I'm A Lonesome Fugitive
TTITLE4=I Threw Away The Rose
TTITLE5=Branded Man
TTITLE6=Sing Me Back Home
TTITLE7=The Legend of Bonnie and Clyde
TTITLE8=Mama Tried
TTITLE9=I Take Alot Of Pride In What I Am
TTITLE10=Hungry Eyes
TTITLE11=Workin' Man Blues
TTITLE12=Okie From Muskogee
TTITLE13=The Fightin' Side Of Me
TTITLE14=Someday We'll Look Back
TTITLE15=Daddy Frank (The Guitar Man)
TTITLE16=Carolyn
TTITLE17=It's Not Love (But It's Not Bad)
TTITLE18=The Emptiest Arms In The World
TTITLE19=Everybody's Had The Blues
EXTD=CURB hit Label CURCD 040 - UK
EXTT0=
EXTT1=
EXTT2=
EXTT3=
EXTT4=
EXTT5=
EXTT6=
EXTT7=
EXTT8=
EXTT9=
EXTT10=
EXTT11=
EXTT12=
EXTT13=
EXTT14=
EXTT15=
EXTT16=
EXTT17=
EXTT18=
EXTT19=
PLAYORDER=
